<mxfile host="app.diagrams.net" agent="Mozilla/5.0 (Windows NT 10.0; Win64; x64) AppleWebKit/537.36 (KHTML, like Gecko) Chrome/134.0.0.0 Safari/537.36" version="26.0.7">
  <diagram name="Page-1" id="1kTdTsgFLfqltDf_7oXh">
    <mxGraphModel dx="872" dy="962" grid="0" gridSize="10" guides="1" tooltips="1" connect="1" arrows="1" fold="1" page="0" pageScale="1" pageWidth="850" pageHeight="1100" math="0" shadow="0">
      <root>
        <mxCell id="0" />
        <mxCell id="1" parent="0" />
        <mxCell id="t4rvMsI7CJ7YMM1qa2hy-13" value="" style="rounded=0;fillColor=#F0FFFE;strokeColor=#6c8ebf;labelPosition=left;verticalLabelPosition=top;align=right;verticalAlign=bottom;html=1;whiteSpace=wrap;spacingLeft=0;spacingRight=-2;" vertex="1" parent="1">
          <mxGeometry x="100" y="170" width="500" height="370" as="geometry" />
        </mxCell>
        <mxCell id="t4rvMsI7CJ7YMM1qa2hy-5" value="&lt;div&gt;router-security.mek-tech.net&lt;/div&gt;Custom Azure Domain" style="image;aspect=fixed;html=1;points=[];align=center;fontSize=12;image=img/lib/azure2/app_services/App_Service_Domains.svg;" vertex="1" parent="1">
          <mxGeometry x="460" y="170" width="65" height="52" as="geometry" />
        </mxCell>
        <mxCell id="t4rvMsI7CJ7YMM1qa2hy-7" style="edgeStyle=orthogonalEdgeStyle;rounded=0;orthogonalLoop=1;jettySize=auto;html=1;entryX=0.478;entryY=0.037;entryDx=0;entryDy=0;entryPerimeter=0;" edge="1" parent="1" source="t4rvMsI7CJ7YMM1qa2hy-5" target="t4rvMsI7CJ7YMM1qa2hy-4">
          <mxGeometry relative="1" as="geometry" />
        </mxCell>
        <mxCell id="t4rvMsI7CJ7YMM1qa2hy-26" value="routes to" style="edgeLabel;html=1;align=center;verticalAlign=middle;resizable=0;points=[];" vertex="1" connectable="0" parent="t4rvMsI7CJ7YMM1qa2hy-7">
          <mxGeometry x="-0.5009" y="-3" relative="1" as="geometry">
            <mxPoint x="3" y="-6" as="offset" />
          </mxGeometry>
        </mxCell>
        <mxCell id="t4rvMsI7CJ7YMM1qa2hy-9" style="edgeStyle=orthogonalEdgeStyle;rounded=0;orthogonalLoop=1;jettySize=auto;html=1;entryX=0.491;entryY=-0.012;entryDx=0;entryDy=0;entryPerimeter=0;" edge="1" parent="1" source="t4rvMsI7CJ7YMM1qa2hy-4" target="t4rvMsI7CJ7YMM1qa2hy-6">
          <mxGeometry relative="1" as="geometry" />
        </mxCell>
        <mxCell id="t4rvMsI7CJ7YMM1qa2hy-27" value="spawns" style="edgeLabel;html=1;align=center;verticalAlign=middle;resizable=0;points=[];" vertex="1" connectable="0" parent="t4rvMsI7CJ7YMM1qa2hy-9">
          <mxGeometry x="0.2072" y="2" relative="1" as="geometry">
            <mxPoint x="19" y="8" as="offset" />
          </mxGeometry>
        </mxCell>
        <mxCell id="t4rvMsI7CJ7YMM1qa2hy-10" value="isp-router-security&lt;div&gt;App Service Plan&lt;/div&gt;" style="image;aspect=fixed;html=1;points=[];align=center;fontSize=12;image=img/lib/azure2/app_services/App_Service_Plans.svg;" vertex="1" parent="1">
          <mxGeometry x="200" y="270" width="64" height="64" as="geometry" />
        </mxCell>
        <mxCell id="t4rvMsI7CJ7YMM1qa2hy-11" style="edgeStyle=orthogonalEdgeStyle;rounded=0;orthogonalLoop=1;jettySize=auto;html=1;entryX=-0.009;entryY=0.5;entryDx=0;entryDy=0;entryPerimeter=0;" edge="1" parent="1" source="t4rvMsI7CJ7YMM1qa2hy-10" target="t4rvMsI7CJ7YMM1qa2hy-4">
          <mxGeometry relative="1" as="geometry" />
        </mxCell>
        <mxCell id="t4rvMsI7CJ7YMM1qa2hy-24" value="creates settings for" style="edgeLabel;html=1;align=center;verticalAlign=middle;resizable=0;points=[];" vertex="1" connectable="0" parent="t4rvMsI7CJ7YMM1qa2hy-11">
          <mxGeometry x="-0.2903" y="3" relative="1" as="geometry">
            <mxPoint x="8" y="-9" as="offset" />
          </mxGeometry>
        </mxCell>
        <mxCell id="t4rvMsI7CJ7YMM1qa2hy-12" value="&lt;div&gt;&lt;font style=&quot;font-size: 10px;&quot;&gt;isp-router-security&lt;/font&gt;&lt;/div&gt;" style="image;sketch=0;aspect=fixed;html=1;points=[];align=center;fontSize=12;image=img/lib/mscae/ResourceGroup.svg;" vertex="1" parent="1">
          <mxGeometry x="137" y="179" width="25" height="20" as="geometry" />
        </mxCell>
        <mxCell id="t4rvMsI7CJ7YMM1qa2hy-16" style="edgeStyle=orthogonalEdgeStyle;rounded=0;orthogonalLoop=1;jettySize=auto;html=1;" edge="1" parent="1" source="t4rvMsI7CJ7YMM1qa2hy-15">
          <mxGeometry relative="1" as="geometry">
            <mxPoint x="400" y="270" as="targetPoint" />
          </mxGeometry>
        </mxCell>
        <mxCell id="t4rvMsI7CJ7YMM1qa2hy-25" value="binds to" style="edgeLabel;html=1;align=center;verticalAlign=middle;resizable=0;points=[];" vertex="1" connectable="0" parent="t4rvMsI7CJ7YMM1qa2hy-16">
          <mxGeometry x="-0.6556" y="4" relative="1" as="geometry">
            <mxPoint x="4" y="-5" as="offset" />
          </mxGeometry>
        </mxCell>
        <mxCell id="t4rvMsI7CJ7YMM1qa2hy-15" value="App Service Managed Certificate" style="image;sketch=0;aspect=fixed;html=1;points=[];align=center;fontSize=12;image=img/lib/mscae/Certificate.svg;" vertex="1" parent="1">
          <mxGeometry x="295" y="175" width="50" height="42" as="geometry" />
        </mxCell>
        <mxCell id="t4rvMsI7CJ7YMM1qa2hy-17" value="&lt;font style=&quot;font-size: 16px;&quot;&gt;&lt;b&gt;Azure&lt;/b&gt;&lt;/font&gt;" style="text;html=1;align=center;verticalAlign=middle;whiteSpace=wrap;rounded=0;" vertex="1" parent="1">
          <mxGeometry x="105" y="500" width="60" height="30" as="geometry" />
        </mxCell>
        <mxCell id="t4rvMsI7CJ7YMM1qa2hy-20" style="edgeStyle=orthogonalEdgeStyle;rounded=0;orthogonalLoop=1;jettySize=auto;html=1;" edge="1" parent="1" source="t4rvMsI7CJ7YMM1qa2hy-18" target="t4rvMsI7CJ7YMM1qa2hy-19">
          <mxGeometry relative="1" as="geometry" />
        </mxCell>
        <mxCell id="t4rvMsI7CJ7YMM1qa2hy-21" value="browses to router-security.mek-tech.net" style="edgeLabel;html=1;align=center;verticalAlign=middle;resizable=0;points=[];" vertex="1" connectable="0" parent="t4rvMsI7CJ7YMM1qa2hy-20">
          <mxGeometry x="-0.1314" y="3" relative="1" as="geometry">
            <mxPoint x="11" y="-7" as="offset" />
          </mxGeometry>
        </mxCell>
        <mxCell id="t4rvMsI7CJ7YMM1qa2hy-18" value="User" style="shape=umlActor;verticalLabelPosition=bottom;verticalAlign=top;html=1;outlineConnect=0;" vertex="1" parent="1">
          <mxGeometry x="140" y="570" width="30" height="60" as="geometry" />
        </mxCell>
        <mxCell id="t4rvMsI7CJ7YMM1qa2hy-22" style="edgeStyle=orthogonalEdgeStyle;rounded=0;orthogonalLoop=1;jettySize=auto;html=1;" edge="1" parent="1" source="t4rvMsI7CJ7YMM1qa2hy-19" target="t4rvMsI7CJ7YMM1qa2hy-6">
          <mxGeometry relative="1" as="geometry" />
        </mxCell>
        <mxCell id="t4rvMsI7CJ7YMM1qa2hy-28" value="retrieves" style="edgeLabel;html=1;align=center;verticalAlign=middle;resizable=0;points=[];" vertex="1" connectable="0" parent="t4rvMsI7CJ7YMM1qa2hy-22">
          <mxGeometry x="0.1805" y="-1" relative="1" as="geometry">
            <mxPoint x="22" y="13" as="offset" />
          </mxGeometry>
        </mxCell>
        <mxCell id="t4rvMsI7CJ7YMM1qa2hy-19" value="Internet" style="image;aspect=fixed;perimeter=ellipsePerimeter;html=1;align=center;shadow=0;dashed=0;spacingTop=3;image=img/lib/active_directory/internet_cloud.svg;" vertex="1" parent="1">
          <mxGeometry x="377" y="584.25" width="50" height="31.5" as="geometry" />
        </mxCell>
        <mxCell id="t4rvMsI7CJ7YMM1qa2hy-6" value="&lt;div&gt;isp-router-security-webapp&lt;div&gt;Instance&lt;/div&gt;&lt;/div&gt;" style="image;aspect=fixed;html=1;points=[];align=center;fontSize=12;image=img/lib/azure2/app_services/App_Services.svg;spacingTop=5;" vertex="1" parent="1">
          <mxGeometry x="370" y="410" width="64" height="64" as="geometry" />
        </mxCell>
        <mxCell id="t4rvMsI7CJ7YMM1qa2hy-4" value="isp-router-security-webapp&lt;div&gt;&lt;div&gt;App Service&lt;/div&gt;&lt;/div&gt;" style="image;aspect=fixed;html=1;points=[];align=center;fontSize=12;image=img/lib/azure2/app_services/App_Services.svg;" vertex="1" parent="1">
          <mxGeometry x="370" y="270" width="64" height="64" as="geometry" />
        </mxCell>
      </root>
    </mxGraphModel>
  </diagram>
</mxfile>
